REM DIRINDEX 1\2\3,1\2\4,1\2\5,1\2\6
REM DIRNAME cjc157,folder01,folder02,folder03,folder04,folder05
TITLE ""
FILE "136 136.mp3" MP3
  TRACK 01 AUDIO
    TITLE "0:"
    INDEX 01 00:00:00
  TRACK 02 AUDIO
    TITLE "3:cjc157_5089"
    INDEX 01 00:00:11
  TRACK 03 AUDIO
    TITLE "0:"
    INDEX 01 00:01:38
  TRACK 04 AUDIO
    TITLE "4:cjc157_5090"
    INDEX 01 00:02:10
  TRACK 05 AUDIO
    TITLE "0:"
    INDEX 01 00:03:29
  TRACK 06 AUDIO
    TITLE "5:cjc157_5091"
    INDEX 01 00:04:01
  TRACK 07 AUDIO
    TITLE "0:"
    INDEX 01 00:07:70
  TRACK 08 AUDIO
    TITLE "5:cjc157_5092"
    INDEX 01 00:08:42
  TRACK 09 AUDIO
    TITLE "0:"
    INDEX 01 00:11:27
  TRACK 10 AUDIO
    TITLE "3:cjc157_5093"
    INDEX 01 00:12:01
  TRACK 11 AUDIO
    TITLE "0:"
    INDEX 01 00:13:43
  TRACK 12 AUDIO
    TITLE "4:cjc157_5094"
    INDEX 01 00:14:13
  TRACK 13 AUDIO
    TITLE "0:"
    INDEX 01 00:15:15
  TRACK 14 AUDIO
    TITLE "5:cjc157_5095"
    INDEX 01 00:15:58
  TRACK 15 AUDIO
    TITLE "0:"
    INDEX 01 00:18:27
  TRACK 16 AUDIO
    TITLE "5:cjc157_5096"
    INDEX 01 00:18:72
  TRACK 17 AUDIO
    TITLE "0:"
    INDEX 01 00:21:31
  TRACK 18 AUDIO
    TITLE "3:cjc157_5097"
    INDEX 01 00:22:01
  TRACK 19 AUDIO
    TITLE "0:"
    INDEX 01 00:23:65
  TRACK 20 AUDIO
    TITLE "4:cjc157_5098"
    INDEX 01 00:24:33
  TRACK 21 AUDIO
    TITLE "0:"
    INDEX 01 00:25:33
  TRACK 22 AUDIO
    TITLE "5:cjc157_5099"
    INDEX 01 00:26:05
  TRACK 23 AUDIO
    TITLE "0:"
    INDEX 01 00:28:43
  TRACK 24 AUDIO
    TITLE "5:cjc157_5100"
    INDEX 01 00:29:17
  TRACK 25 AUDIO
    TITLE "0:"
    INDEX 01 00:31:14
  TRACK 26 AUDIO
    TITLE "5:cjc157_5101"
    INDEX 01 00:31:65
  TRACK 27 AUDIO
    TITLE "0:"
    INDEX 01 00:35:29
  TRACK 28 AUDIO
    TITLE "5:cjc157_5102"
    INDEX 01 00:35:74
  TRACK 29 AUDIO
    TITLE "0:"
    INDEX 01 00:38:20
  TRACK 30 AUDIO
    TITLE "3:cjc157_5103"
    INDEX 01 00:38:67
  TRACK 31 AUDIO
    TITLE "0:"
    INDEX 01 00:40:21
  TRACK 32 AUDIO
    TITLE "4:cjc157_5104"
    INDEX 01 00:40:68
  TRACK 33 AUDIO
    TITLE "0:"
    INDEX 01 00:42:18
  TRACK 34 AUDIO
    TITLE "5:cjc157_5105"
    INDEX 01 00:42:63
  TRACK 35 AUDIO
    TITLE "0:"
    INDEX 01 00:45:33
  TRACK 36 AUDIO
    TITLE "3:cjc157_5106"
    INDEX 01 00:46:06
  TRACK 37 AUDIO
    TITLE "0:"
    INDEX 01 00:47:58
  TRACK 38 AUDIO
    TITLE "4:cjc157_5107"
    INDEX 01 00:48:30
  TRACK 39 AUDIO
    TITLE "0:"
    INDEX 01 00:49:61
  TRACK 40 AUDIO
    TITLE "5:cjc157_5108"
    INDEX 01 00:50:35
  TRACK 41 AUDIO
    TITLE "0:"
    INDEX 01 00:52:43
  TRACK 42 AUDIO
    TITLE "3:cjc157_5109"
    INDEX 01 00:53:15
  TRACK 43 AUDIO
    TITLE "0:"
    INDEX 01 00:54:42
  TRACK 44 AUDIO
    TITLE "4:cjc157_5110"
    INDEX 01 00:55:14
  TRACK 45 AUDIO
    TITLE "0:"
    INDEX 01 00:56:25
  TRACK 46 AUDIO
    TITLE "5:cjc157_5111"
    INDEX 01 00:56:69
  TRACK 47 AUDIO
    TITLE "0:"
    INDEX 01 01:00:02
  TRACK 48 AUDIO
    TITLE "5:cjc157_5112"
    INDEX 01 01:00:49
  TRACK 49 AUDIO
    TITLE "0:"
    INDEX 01 01:03:02
  TRACK 50 AUDIO
    TITLE "3:cjc157_5113"
    INDEX 01 01:03:53
  TRACK 51 AUDIO
    TITLE "0:"
    INDEX 01 01:04:72
  TRACK 52 AUDIO
    TITLE "4:cjc157_5114"
    INDEX 01 01:05:42
  TRACK 53 AUDIO
    TITLE "0:"
    INDEX 01 01:06:55
  TRACK 54 AUDIO
    TITLE "5:cjc157_5115"
    INDEX 01 01:07:23
  TRACK 55 AUDIO
    TITLE "0:"
    INDEX 01 01:10:45
  TRACK 56 AUDIO
    TITLE "5:cjc157_5116"
    INDEX 01 01:11:19
  TRACK 57 AUDIO
    TITLE "0:"
    INDEX 01 01:13:44
  TRACK 58 AUDIO
    TITLE "3:cjc157_5117"
    INDEX 01 01:14:14
  TRACK 59 AUDIO
    TITLE "0:"
    INDEX 01 01:15:42
  TRACK 60 AUDIO
    TITLE "4:cjc157_5118"
    INDEX 01 01:16:12
  TRACK 61 AUDIO
    TITLE "0:"
    INDEX 01 01:17:28
  TRACK 62 AUDIO
    TITLE "5:cjc157_5119"
    INDEX 01 01:18:06
  TRACK 63 AUDIO
    TITLE "0:"
    INDEX 01 01:20:04
  TRACK 64 AUDIO
    TITLE "5:cjc157_5120"
    INDEX 01 01:20:49
  TRACK 65 AUDIO
    TITLE "0:"
    INDEX 01 01:23:01
  TRACK 66 AUDIO
    TITLE "5:cjc157_5121"
    INDEX 01 01:23:52
  TRACK 67 AUDIO
    TITLE "0:"
    INDEX 01 01:25:00
  TRACK 68 AUDIO
    TITLE "3:cjc157_5122"
    INDEX 01 01:25:45
  TRACK 69 AUDIO
    TITLE "0:"
    INDEX 01 01:26:60
  TRACK 70 AUDIO
    TITLE "4:cjc157_5123"
    INDEX 01 01:27:30
  TRACK 71 AUDIO
    TITLE "0:"
    INDEX 01 01:28:57
  TRACK 72 AUDIO
    TITLE "5:cjc157_5124"
    INDEX 01 01:29:31
  TRACK 73 AUDIO
    TITLE "0:"
    INDEX 01 01:31:45
  TRACK 74 AUDIO
    TITLE "5:cjc157_5125"
    INDEX 01 01:32:15
  TRACK 75 AUDIO
    TITLE "0:"
    INDEX 01 01:34:16
  TRACK 76 AUDIO
    TITLE "3:cjc157_5126"
    INDEX 01 01:34:65
  TRACK 77 AUDIO
    TITLE "0:"
    INDEX 01 01:36:23
  TRACK 78 AUDIO
    TITLE "4:cjc157_5127"
    INDEX 01 01:36:70
  TRACK 79 AUDIO
    TITLE "0:"
    INDEX 01 01:38:16
  TRACK 80 AUDIO
    TITLE "5:cjc157_5128"
    INDEX 01 01:38:61
  TRACK 81 AUDIO
    TITLE "0:"
    INDEX 01 01:41:63
